<svg xmlns="http://www.w3.org/2000/svg" viewBox="0 0 1086.56 2856"><defs><style>.cls-1{fill:#676867;}.cls-2{fill:#999;}</style></defs><g id="Layer_2" data-name="Layer 2"><polygon class="cls-1" points="42.47 2856 49.55 2727.03 138.03 2604.92 113.26 2505.82 184.04 2362.48 155.73 2212.06 307.92 1672.32 782.18 1672.32 856.51 2185.51 806.96 2286.38 842.35 2399.64 837.04 2555.37 923.75 2801.35 914.91 2856 42.47 2856"/></g><g id="Layer_3" data-name="Layer 3"><polygon class="cls-2" points="445.95 2309.39 445.95 1757.26 578.67 1746.64 592.83 2318.24 729.09 2318.24 863.59 2192.59 863.59 2010.32 1049.4 1819.2 1086.56 1458.19 976.85 28.31 548.59 28.31 28.31 0 0 1649.31 142.01 1849.28 123.43 2029.78 278.72 2125.34 314.56 2293.9 445.95 2309.39"/></g></svg>