<svg xmlns="http://www.w3.org/2000/svg" viewBox="0 0 3181.53 965.65"><defs><style>.cls-1{fill:#fff;stroke:#231f20;stroke-miterlimit:10;}.cls-2{fill:#0c431d;}.cls-3{fill:#2f6400;}</style></defs><g id="Layer_2" data-name="Layer 2"><path class="cls-1" d="M298.21,83.49" transform="translate(-23.55 -69.09)"/><path class="cls-2" d="M333.15,83.49H298.21s14,425.65-6.14,426.29c0,0-53,.71-69,1.8a4.89,4.89,0,0,0-4.48,4c-.91,5.17,0,13.81,16.75,12.61,18.26-1.3,37-2.11,44.69-2.41a8.52,8.52,0,0,1,6.68,2.81c6.38,7.07,19.39,27.63,6.86,68.85,0,0-1.85,6.81-21.26,9.43a9.49,9.49,0,0,1-1.51.06c-6.45-.29-53-2.31-69.34.5a8.54,8.54,0,0,0-5.86,4c-1.58,2.65-2.74,6.36.77,9a7.92,7.92,0,0,0,4.25,1.48c10.43.68,65.82,4.05,91.16,0a9.63,9.63,0,0,0,1.18-.28c.57-.18,1.48-.47,2.64-.91a52.81,52.81,0,0,0,34.09-49.13Z" transform="translate(-23.55 -69.09)"/></g><g id="Layer_3" data-name="Layer 3"><path class="cls-2" d="M40.64,93.38l50.82-4.8S78.61,488.39,85,520.15c0,0,3.82,22.87,14,25.41H164s7.91,7.49,0,18.22H104.09s-14.61,9.6-20.25,31.62c0,0-2.26,178.45,10.72,190.31H293.34l4.52-63.25s-6.21-28.24-6.78-44.05c0,0,103.34-20.33,164.9,9,0,0,83,42.91,110.68,73.41,0,0,9.6,7.9,23.15,2.26l63-18.91a10.2,10.2,0,0,1,11.29,3.66c2,2.89,2.18,6.75-4.85,10.91a15.41,15.41,0,0,1-3.33,1.45L600.35,777.3a21.36,21.36,0,0,0-14.26,14c-1.62,5.28-1.13,11.34,6,15.91,0,0,142,48,191.72,26.26,0,0,6.49-3.38,5.08-22.87,0,0,37.84-11.29,58.59-7.2l1.27-23.29s55.23-5.79,63.49-2.51l2-28.27,375.65-3a110.84,110.84,0,0,1,26.54,3c31.57,7.5,111.92,29.17,191.59,71.43,0,0,31.06,24.28,176.19,14.68,0,0,32.75,1.69,96.57-31.62,0,0,33.88-9.6,64.94-5.65l612.7-7.34s41.93,8.89,77.09,42.35c0,0,52.51,53.37,82.16,52.52L2861.62,895s2.54-13.56,22-23.72l214.3-2.54s31.34-4.24,35.58-40.66c0,0,13.55-300.71,11.86-329.51,0,0-1.7-37.27,28-55.06,0,0,32.19,1.7,31.34,56.76,0,0,.88,272.75,0,290.54,0,0-21.19,87.25-59.31,94,0,0-89.79,13.55-121.13,6.78,0,0-39.81-1.7-60.14,8.47,0,0-58.45,20.33-83.86,21.18,0,0-211.77-11-252.42-15.25,0,0-34.73-5.08-90.64-29.65,0,0-105.88-52.23-138.07-52.23L2117.91,820l-302.4.43s-41.09,4.65-66.5,18.21c0,0-19.06,29.79-162.21,25.83,0,0-46.59-3-71.15-9.74,0,0-152.47-64.38-169.84-75,0,0-87.25-14-195.67-6.78,0,0-139.76,2.12-183.39,8,0,0-36.42,9.74-68.19,24.56L412.78,1032.2l-389.23,2.54S52.21,97.33,40.64,93.38Z" transform="translate(-23.55 -69.09)"/></g><g id="Layer_4" data-name="Layer 4"><path class="cls-3" d="M829,69.09h19.77s-9.88,548.8,13.83,554.78c0,0-6.18,10.63,79.73,2.52A17.88,17.88,0,0,1,960,635.8a2,2,0,0,1,.13.25,7.37,7.37,0,0,1-4.39,10.23c-8,2.56-26.81,5.58-70.88,5.49-22.71,0-43-14.86-49.31-36.68-.17-.57-.33-1.16-.48-1.76Z" transform="translate(-23.55 -69.09)"/><path class="cls-3" d="M982.66,692.16c.26-.48.54-1,.87-1.5a7.3,7.3,0,0,1,6.38-3.4l106.1,2.67a7.22,7.22,0,0,1,4.45,1.65l.13.1a7.32,7.32,0,0,1-4.13,12.85c-22.59,2-89.58,7-110.3-2.21A7.35,7.35,0,0,1,982.66,692.16Z" transform="translate(-23.55 -69.09)"/></g></svg>